#!OML:ASF I:\Actors\actors\Patient Classification 2\Patient 1\Session 1\actor1.ASF
:FULLY-SPECIFIED
:DEGREES
741
root -0.874088 18.6754 5.67548 0.237625 -5.97113 -5.39371
lowerback 7.51941 0.62976 2.4166
upperback 1.3795 1.08961 2.03316
thorax -2.78434 0.526372 0.634524
lowerneck -14.5383 0.0325628 -0.337041
upperneck 20.0207 -0.742879 3.8438
head 8.66535 0.0270932 1.26765
rclavicle 3.53775e-015 5.62809e-015
rhumerus -44.0126 -6.65405 -76.0551
rradius 43.1571
rwrist 9.71302
rhand -9.34516 -32.0807
rfingers 7.12502
rthumb 16.6142 -61.3896
lclavicle 3.53775e-015 5.62809e-015
lhumerus -37.9043 3.13677 81.2896
lradius 41.5484
lwrist -3.26887
lhand -3.85403 -21.0177
lfingers 7.12502
lthumb 21.8941 7.76353
rfemur 7.3523 8.0453 20.6133
rtibia -4.77083e-015
rfoot -17.9265 -12.3532
rtoes -6.10117
lfemur -4.15604 -8.90348 -9.25429
ltibia 23.9629
lfoot -25.7173 16.0596
ltoes -54.913
742
root -0.867634 18.678 5.66617 0.356358 -5.83481 -5.34931
lowerback 7.49685 0.595402 2.45845
upperback 1.36038 1.0477 2.05505
thorax -2.79145 0.505116 0.637901
lowerneck -14.4608 0.103476 -0.254806
upperneck 19.8918 -0.597578 3.56849
head 8.60255 0.0707562 1.17612
rclavicle 5.06668e-017 2.11892e-014
rhumerus -43.9023 -7.39545 -75.7888
rradius 43.7549
rwrist 8.12458
rhand -9.96526 -32.2511
rfingers 7.12502
rthumb 16.0171 -61.609
lclavicle 5.06668e-017 2.11892e-014
lhumerus -37.4978 4.21356 80.9832
lradius 41.6602
lwrist -1.86798
lhand -5.58833 -21.9229
lfingers 7.12502
lthumb 20.2281 7.04387
rfemur 7.20383 7.9149 20.5094
rtibia 1.59028e-014
rfoot -17.918 -12.2923
rtoes -5.88527
lfemur -4.2974 -8.88372 -9.26938
ltibia 23.8343
lfoot -25.6414 15.8651
ltoes -54.8283
743
root -0.860833 18.6809 5.65825 0.476663 -5.69123 -5.31391
lowerback 7.47611 0.552083 2.5481
upperback 1.33132 0.997476 2.05886
thorax -2.80876 0.479111 0.596537
lowerneck -14.4272 0.084963 -0.324971
upperneck 19.7575 -0.58494 3.49283
head 8.5502 0.0619078 1.16239
rclavicle -5.72748e-015 -1.66358e-014
rhumerus -43.8082 -8.03939 -75.6737
rradius 44.327
rwrist 6.63861
rhand -10.5172 -32.5178
rfingers 7.12502
rthumb 15.4855 -61.9176
lclavicle -5.72748e-015 -1.66358e-014
lhumerus -37.1379 5.42143 80.6647
lradius 42.0651
lwrist -1.11624
lhand -6.75731 -21.8954
lfingers 7.12502
lthumb 19.1042 7.18637
rfemur 7.05552 7.77653 20.4182
rtibia -1.74931e-014
rfoot -17.9244 -12.2677
rtoes -5.85778
lfemur -4.49705 -8.81676 -9.26935
ltibia 23.7944
lfoot -25.5082 15.6735
ltoes -54.8058
744
root -0.854372 18.6828 5.65086 0.54724 -5.49793 -5.25377
lowerback 7.48964 0.481308 2.62034
upperback 1.31477 0.909971 2.04974
thorax -2.83279 0.434645 0.554934
lowerneck -14.3836 0.0943624 -0.312388
upperneck 19.6007 -0.527576 3.3018
head 8.48712 0.0681751 1.10096
rclavicle -2.36367e-015 9.14409e-015
rhumerus -43.7314 -8.49919 -75.7364
rradius 44.9047
rwrist 5.23424
rhand -11.1089 -32.7865
rfingers 7.12502
rthumb 14.9156 -62.2295
lclavicle -2.36367e-015 9.14409e-015
lhumerus -36.8402 6.47495 80.5048
lradius 42.7166
lwrist -0.556155
lhand -7.96819 -21.1149
lfingers 7.12502
lthumb 17.9394 8.07769
rfemur 6.96395 7.58708 20.315
rtibia 7.95139e-015
rfoot -17.9081 -12.292
rtoes -6.04541
lfemur -4.69117 -8.6828 -9.29406
ltibia 23.8034
lfoot -25.2629 15.4891
ltoes -54.8724
745
root -0.848747 18.6849 5.64551 0.583549 -5.30908 -5.182
lowerback 7.49772 0.410728 2.65405
upperback 1.31081 0.81938 2.05158
thorax -2.84174 0.389218 0.546692
lowerneck -14.3896 0.104321 -0.327303
upperneck 19.5299 -0.464139 3.10112
head 8.46219 0.0756312 1.04261
rclavicle 5.22431e-015 6.31141e-015
rhumerus -43.7202 -8.71434 -75.9187
rradius 45.5774
rwrist 4.01459
rhand -11.8081 -32.7463
rfingers 7.12502
rthumb 14.2419 -62.238
lclavicle 5.22431e-015 6.31141e-015
lhumerus -36.6384 7.34991 80.5038
lradius 43.1937
lwrist 0.738951
lhand -9.36794 -21.6101
lfingers 7.12502
lthumb 16.5922 7.70063
rfemur 6.91651 7.40125 20.2093
rtibia -1.27222e-014
rfoot -17.8561 -12.3278
rtoes -6.33129
lfemur -4.85269 -8.42928 -9.32813
ltibia 23.8367
lfoot -24.9712 15.2444
ltoes -55.0459
746
root -0.842599 18.6864 5.64323 0.601311 -5.17586 -5.1435
lowerback 7.48653 0.37048 2.73037
upperback 1.30619 0.771714 2.05406
thorax -2.83975 0.364838 0.511193
lowerneck -14.4306 0.0907253 -0.419653
upperneck 19.5273 -0.437884 2.99564
head 8.4678 0.0705787 1.02566
rclavicle -8.98879e-015 2.47487e-014
rhumerus -43.7756 -8.75013 -76.2029
rradius 46.2687
rwrist 3.14407
rhand -12.5131 -32.5246
rfingers 7.12502
rthumb 13.5625 -62.0629
lclavicle -8.98879e-015 2.47487e-014
lhumerus -36.4892 8.23826 80.513
lradius 43.277
lwrist 2.39331
lhand -10.3969 -23.9043
lfingers 7.12502
lthumb 15.6014 5.48646
rfemur 6.89429 7.27109 20.1404
rtibia -1.59028e-015
rfoot -17.8445 -12.338
rtoes -6.2925
lfemur -4.96695 -8.13326 -9.33699
ltibia 23.8811
lfoot -24.7581 14.9682
ltoes -55.1786
747
root -0.836864 18.6865 5.64213 0.600961 -5.07455 -5.17932
lowerback 7.51784 0.351183 2.88852
upperback 1.2786 0.76129 2.06273
thorax -2.88389 0.357635 0.432264
lowerneck -14.4442 0.071961 -0.508908
upperneck 19.5122 -0.427798 2.93051
head 8.46474 0.0620274 1.01973
rclavicle -2.15122e-014 1.42628e-014
rhumerus -43.8956 -8.62188 -76.6167
rradius 46.8341
rwrist 2.31722
rhand -12.9803 -32.5125
rfingers 7.12502
rthumb 13.1122 -62.0802
lclavicle -2.15122e-014 1.42628e-014
lhumerus -36.4556 8.52111 80.8783
lradius 44.1374
lwrist 3.80256
lhand -11.2696 -23.0093
lfingers 7.12502
lthumb 14.7608 6.4451
rfemur 6.90051 7.17201 20.1619
rtibia -1.43125e-014
rfoot -17.8728 -12.3376
rtoes -6.1028
lfemur -5.03665 -7.99017 -9.28793
ltibia 23.9292
lfoot -24.6294 14.8077
ltoes -55.1815
748
root -0.832126 18.6872 5.64172 0.642247 -4.97758 -5.19315
lowerback 7.53589 0.343215 2.99972
upperback 1.21419 0.763255 2.07653
thorax -2.95932 0.356447 0.383749
lowerneck -14.5028 0.0336787 -0.588804
upperneck 19.5694 -0.444059 2.84362
head 8.49476 0.0403137 1.0026
rclavicle -5.93248e-015 -1.78409e-014
rhumerus -44.0502 -8.37272 -77.1068
rradius 47.2644
rwrist 1.61845
rhand -13.1566 -32.638
rfingers 7.12502
rthumb 12.9422 -62.2166
lclavicle -5.93248e-015 -1.78409e-014
lhumerus -36.4709 8.66566 81.2775
lradius 44.5512
lwrist 5.05193
lhand -12.0702 -23.7537
lfingers 7.12502
lthumb 13.9894 5.75559
rfemur 6.86618 7.0771 20.1572
rtibia -1.27222e-014
rfoot -17.8984 -12.3244
rtoes -5.96412
lfemur -5.14647 -7.95065 -9.26405
ltibia 23.9724
lfoot -24.5428 14.7177
ltoes -55.1807
749
root -0.828203 18.6885 5.64324 0.702658 -4.87794 -5.14761
lowerback 7.49928 0.345756 3.03175
upperback 1.14063 0.770294 2.07662
thorax -3.01451 0.358639 0.365287
lowerneck -14.5459 -0.0396303 -0.667058
upperneck 19.6459 -0.509119 2.75523
head 8.5295 -0.0045147 0.97911
rclavicle 3.63403e-015 -1.39149e-014
rhumerus -44.1843 -8.14093 -77.5893
rradius 47.5686
rwrist 1.52159
rhand -13.2364 -32.4592
rfingers 7.12502
rthumb 12.8653 -62.0427
lclavicle 3.63403e-015 -1.39149e-014
lhumerus -36.5092 8.59448 81.767
lradius 44.9054
lwrist 6.03723
lhand -12.4773 -24.5185
lfingers 7.12502
lthumb 13.597 5.01747
rfemur 6.81482 6.97991 20.0823
rtibia -1.59028e-014
rfoot -17.9253 -12.2826
rtoes -5.81364
lfemur -5.26297 -7.91374 -9.30111
ltibia 23.9971
lfoot -24.4883 14.6098
ltoes -55.1836
750
root -0.824339 18.6894 5.6469 0.728947 -4.77276 -5.08119
lowerback 7.43165 0.353952 3.06438
upperback 1.08958 0.781754 2.05068
thorax -3.0286 0.363468 0.319427
lowerneck -14.5139 -0.119195 -0.736168
upperneck 19.6457 -0.586389 2.68196
head 8.52493 -0.0538767 0.95698
rclavicle 9.29318e-015 8.94531e-015
rhumerus -44.3074 -7.88349 -78.0958
rradius 47.7739
rwrist 1.82657
rhand -13.2028 -32.1737
rfingers 7.12502
rthumb 12.8977 -61.7551
lclavicle 9.29318e-015 8.94531e-015
lhumerus -36.5737 8.31099 82.3548
lradius 45.3264
lwrist 6.64976
lhand -12.5935 -24.7079
lfingers 7.12502
lthumb 13.485 4.83548
rfemur 6.80623 6.87721 19.9884
rtibia 1.59028e-015
rfoot -17.9448 -12.2426
rtoes -5.75197
lfemur -5.31715 -7.94049 -9.37935
ltibia 23.9981
lfoot -24.4619 14.5734
ltoes -55.2547
751
root -0.820919 18.6899 5.65243 0.754661 -4.65628 -5.00336
lowerback 7.33016 0.356483 3.09364
upperback 1.04318 0.783166 2.01104
thorax -3.01897 0.363561 0.262554
lowerneck -14.4398 -0.158166 -0.754666
upperneck 19.5921 -0.612868 2.58344
head 8.49349 -0.0787311 0.923352
rclavicle -1.01877e-015 1.2921e-015
rhumerus -44.4377 -7.48845 -78.707
rradius 47.9148
rwrist 2.21533
rhand -13.0807 -32.3144
rfingers 7.12502
rthumb 13.0154 -61.8884
lclavicle -1.01877e-015 1.2921e-015
lhumerus -36.6696 7.91281 82.9946
lradius 45.6264
lwrist 6.95941
lhand -12.5795 -24.9503
lfingers 7.12502
lthumb 13.4986 4.59225
rfemur 6.80213 6.76267 19.8866
rtibia 9.54166e-015
rfoot -17.9488 -12.2235
rtoes -5.67581
lfemur -5.35959 -8.01139 -9.47296
ltibia 23.9852
lfoot -24.4697 14.5709
ltoes -55.3473
752
root -0.819551 18.6891 5.66066 0.760235 -4.56916 -4.94275
lowerback 7.22534 0.36247 3.08067
upperback 1.0042 0.785996 1.98985
thorax -3.00056 0.365038 0.248325
lowerneck -14.3281 -0.150992 -0.723444
upperneck 19.4885 -0.583638 2.47225
head 8.43717 -0.0753947 0.883253
rclavicle 3.8266e-015 6.36111e-015
rhumerus -44.5454 -7.05064 -79.3708
rradius 47.9947
rwrist 2.84648
rhand -12.2287 -32.8093
rfingers 7.12502
rthumb 13.8366 -62.3291
lclavicle 3.8266e-015 6.36111e-015
lhumerus -36.823 7.37299 83.6821
lradius 45.8611
lwrist 7.1207
lhand -12.3922 -25.2785
lfingers 7.12502
lthumb 13.679 4.25194
rfemur 6.8281 6.67653 19.8159
rtibia -1.59028e-015
rfoot -17.9742 -12.2042
rtoes -5.42358
lfemur -5.35729 -8.05481 -9.54136
ltibia 23.9626
lfoot -24.4922 14.5261
ltoes -55.3006
753
root -0.818896 18.6874 5.67078 0.744558 -4.53044 -4.91182
lowerback 7.12334 0.379616 3.05221
upperback 0.984103 0.802626 1.99031
thorax -2.96448 0.373944 0.263877
lowerneck -14.2899 -0.14449 -0.694364
upperneck 19.4173 -0.555918 2.36234
head 8.40528 -0.0720625 0.844176
rclavicle 9.50439e-015 -7.05686e-015
rhumerus -44.621 -6.59699 -80.0526
rradius 47.6344
rwrist 2.78218
rhand -12.0828 -31.6857
rfingers 7.12502
rthumb 13.9772 -61.1958
lclavicle 9.50439e-015 -7.05686e-015
lhumerus -36.949 6.94305 84.3774
lradius 45.9923
lwrist 6.9809
lhand -11.9035 -25.5427
lfingers 7.12502
lthumb 14.15 3.95548
rfemur 6.88394 6.63889 19.7809
rtibia 1.74931e-014
rfoot -18.0385 -12.1625
rtoes -5.24287
lfemur -5.29931 -8.1607 -9.59584
ltibia 23.933
lfoot -24.5322 14.557
ltoes -55.2545
754
root -0.817993 18.686 5.68187 0.754209 -4.49371 -4.89965
lowerback 6.9963 0.400044 3.05199
upperback 0.955134 0.824888 1.98783
thorax -2.92303 0.385335 0.260268
lowerneck -14.3611 -0.165789 -0.68738
upperneck 19.4468 -0.569646 2.2809
head 8.42813 -0.0857757 0.814415
rclavicle -5.41688e-015 2.98177e-016
rhumerus -44.756 -6.11621 -80.7498
rradius 47.4397
rwrist 3.14885
rhand -11.3571 -31.2946
rfingers 7.12502
rthumb 14.6765 -60.7552
lclavicle -5.41688e-015 2.98177e-016
lhumerus -37.0885 6.45806 85.142
lradius 46.1808
lwrist 6.69531
lhand -11.2503 -25.0375
lfingers 7.12502
lthumb 14.7794 4.41551
rfemur 6.922 6.60354 19.7616
rtibia 0
rfoot -18.0931 -12.1087
rtoes -5.331
lfemur -5.26924 -8.2448 -9.62452
ltibia 23.9074
lfoot -24.5582 14.5707
ltoes -55.2739
